<svg width="125" height="125" viewBox="0 0 125 125" fill="none" xmlns="http://www.w3.org/2000/svg">
<rect width="125" height="125" rx="13" fill="#ABABAB"/>
<rect x="5" y="45" width="35" height="35" rx="8" fill="white"/>
<rect x="45" y="45" width="35" height="35" rx="8" fill="white"/>
<rect x="85" y="45" width="35" height="35" rx="8" fill="white"/>
<rect x="5" y="86" width="35" height="35" rx="8" fill="white"/>
<rect x="45" y="85" width="35" height="35" rx="8" fill="white"/>
<rect x="85" y="85" width="35" height="35" rx="8" fill="white"/>
<rect x="5" y="5" width="35" height="35" rx="8" fill="white"/>
<rect x="45" y="5" width="35" height="35" rx="8" fill="white"/>
<rect x="85" y="5" width="35" height="35" rx="8" fill="white"/>
<path d="M102.403 18.1135C102.917 17.8209 103.722 18.1633 104.226 18.3635C104.38 18.4277 104.527 18.4971 104.673 18.5764V18.6545L104.869 18.6936V18.7707C104.89 18.7746 104.912 18.7785 104.934 18.7824C105.64 18.9966 106.263 19.9312 106.596 20.5451C106.95 21.2242 107.098 21.9374 107.098 22.6975C107.098 22.7245 107.098 22.7516 107.098 22.7795C107.098 23.1946 107.074 23.5855 106.971 23.9895C106.96 24.037 106.949 24.085 106.937 24.134C106.866 24.4077 106.768 24.651 106.636 24.9006C106.592 24.9848 106.552 25.0676 106.516 25.1555C106.468 25.2679 106.418 25.3696 106.348 25.4699H106.27C106.266 25.4918 106.263 25.5138 106.259 25.5363C106.081 26.1141 105.302 26.5665 104.809 26.8283C103.654 27.4128 102.24 27.5076 101.012 27.1125C100.345 26.8833 99.8128 26.538 99.2994 26.0539C99.2731 26.0301 99.2465 26.0062 99.2194 25.9817C98.4936 25.2995 98.0362 24.2655 98.0006 23.2746C97.9843 22.0762 98.2917 20.929 98.9879 19.9397C99.0138 19.9027 99.0394 19.8655 99.066 19.8274C99.6148 19.0704 100.329 18.3686 101.261 18.1242C101.542 18.0821 101.848 18.0677 102.121 18.1574C102.271 18.1891 102.28 18.1859 102.403 18.1135ZM102.622 19.9299C102.48 19.8835 102.381 19.8393 102.244 19.9084C102.209 19.9321 102.176 19.9557 102.142 19.9787C101.611 20.2716 100.882 20.6396 100.65 21.2385C100.641 21.2732 100.633 21.3073 100.624 21.341H100.546C100.249 22.1243 100.08 23.0758 100.301 23.9006C100.498 24.459 100.81 24.8411 101.327 25.1311C101.94 25.4518 102.805 25.516 103.466 25.3137C104.037 25.0956 104.488 24.5989 104.735 24.052C105.038 23.2958 105.087 22.3312 104.763 21.5695C104.335 20.6273 103.541 20.2751 102.622 19.9299Z" fill="#191919"/>
<path d="M22.402 99.1138C22.9161 98.8209 23.7206 99.1626 24.2252 99.3629C24.379 99.4271 24.527 99.4964 24.6735 99.5757V99.6539C24.7376 99.6667 24.8017 99.6797 24.8678 99.6929V99.7711C24.8896 99.7749 24.9118 99.7788 24.9342 99.7828C25.6403 99.9972 26.2628 100.932 26.5963 101.545C26.9501 102.224 27.0965 102.937 27.0973 103.697C27.0973 103.724 27.0982 103.751 27.0983 103.779C27.0979 104.194 27.0741 104.586 26.9713 104.99C26.9601 105.037 26.9487 105.085 26.9371 105.133C26.8664 105.407 26.7675 105.65 26.6354 105.9C26.591 105.984 26.5523 106.068 26.5162 106.156C26.4681 106.268 26.4181 106.369 26.3483 106.469H26.2701C26.2664 106.491 26.2623 106.514 26.2584 106.537C26.0794 107.114 25.3021 107.566 24.8092 107.828C23.6544 108.412 22.2391 108.507 21.0114 108.112C20.3439 107.883 19.8117 107.537 19.2985 107.053C19.2723 107.03 19.2464 107.005 19.2194 106.981C18.4935 106.299 18.0362 105.265 18.0006 104.274C17.9843 103.076 18.2907 101.928 18.9869 100.939C19.0129 100.902 19.0394 100.865 19.066 100.827C19.6148 100.07 20.3286 99.368 21.2604 99.1236C21.5414 99.0814 21.8473 99.0671 22.1198 99.1568C22.2706 99.1886 22.2796 99.1861 22.402 99.1138ZM22.6207 100.929C22.4787 100.883 22.3805 100.839 22.2428 100.909C22.2086 100.932 22.1754 100.955 22.1422 100.978C21.6114 101.271 20.8824 101.64 20.65 102.239C20.6409 102.274 20.6316 102.308 20.6227 102.341H20.5455C20.2493 103.125 20.0788 104.075 20.3004 104.9C20.4975 105.459 20.8101 105.841 21.3268 106.131C21.9397 106.452 22.8052 106.516 23.4664 106.314C24.0373 106.096 24.487 105.598 24.734 105.051C25.0368 104.295 25.0871 103.331 24.7633 102.569C24.3346 101.627 23.5406 101.275 22.6207 100.929Z" fill="#191919"/>
<path d="M26.5475 17.1322C26.7809 17.3083 26.9335 17.5486 26.9885 17.8557C27.0271 18.1709 26.9665 18.4253 26.8342 18.7047C26.8116 18.7047 26.789 18.7047 26.7657 18.7047C26.763 18.7247 26.7603 18.7447 26.7576 18.7653C26.7212 18.891 26.6552 18.9887 26.5856 19.0943C26.563 19.1289 26.563 19.1289 26.5399 19.1642C26.2521 19.5959 25.9174 19.9882 25.5854 20.3787C25.531 20.4429 25.4771 20.5075 25.4232 20.5723C25.0382 21.0317 24.6345 21.4708 24.2315 21.9111C24.207 21.9379 24.1825 21.9648 24.1573 21.9924C24.1107 22.0435 24.064 22.0944 24.0172 22.1453C23.9963 22.1682 23.9754 22.1911 23.9539 22.2147C23.9356 22.2346 23.9173 22.2546 23.8985 22.2752C23.8434 22.3378 23.8434 22.3378 23.7824 22.4452C23.7911 22.5907 23.8655 22.6661 23.9538 22.7687C24.0644 22.9001 24.1709 23.033 24.2732 23.1725C24.3929 23.3355 24.5154 23.4954 24.6396 23.6542C24.7871 23.8427 24.9313 24.0336 25.0736 24.2268C25.1675 24.3523 25.2634 24.4756 25.3597 24.5988C25.5072 24.7873 25.6514 24.9782 25.7937 25.1714C25.8876 25.2969 25.9835 25.4202 26.0798 25.5433C26.2298 25.7352 26.3776 25.9286 26.5221 26.1254C26.5711 26.192 26.6206 26.2581 26.6706 26.3238C26.8704 26.5897 26.9957 26.793 26.9829 27.1498C26.9487 27.4279 26.8049 27.6057 26.6134 27.7811C26.4306 27.9207 26.2252 28.0256 25.9984 27.9945C25.4479 27.8055 24.9672 27.1038 24.6053 26.639C24.5895 26.6188 24.5736 26.5986 24.5573 26.5777C24.3647 26.3315 24.1783 26.0808 23.9971 25.8243C23.8777 25.6554 23.7555 25.4893 23.6324 25.3237C23.4581 25.0888 23.2893 24.8499 23.1227 24.6083C22.9453 24.3509 22.7642 24.0967 22.5822 23.8431C22.4808 23.8934 22.4097 23.9483 22.3315 24.035C22.3097 24.0589 22.288 24.0828 22.2656 24.1074C22.2422 24.1335 22.2188 24.1597 22.1946 24.1867C22.1696 24.2143 22.1446 24.2418 22.1188 24.2703C22.0361 24.3616 21.9537 24.4533 21.8712 24.5449C21.8137 24.6086 21.7561 24.6722 21.6985 24.7358C21.5467 24.9036 21.3951 25.0715 21.2435 25.2396C21.0015 25.5079 20.7592 25.7759 20.5169 26.0439C20.4324 26.1373 20.3481 26.2308 20.2639 26.3243C20.2116 26.3822 20.1594 26.44 20.1072 26.4978C20.084 26.5235 20.0608 26.5493 20.037 26.5759C19.9035 26.7233 19.7662 26.8632 19.6228 26.9986C19.5531 27.0657 19.4902 27.138 19.4275 27.2129C19.2625 27.3957 19.1157 27.4921 18.8831 27.5293C18.6399 27.513 18.4291 27.37 18.2659 27.1774C18.0919 26.9355 18.0081 26.708 18 26.3992C18.0668 26.0888 18.2951 25.8689 18.4952 25.6543C18.5216 25.6255 18.5479 25.5966 18.5751 25.5669C18.6916 25.4402 18.8093 25.3173 18.9335 25.1999C19.1182 25.0226 19.2901 24.8312 19.463 24.6402C19.4989 24.6007 19.5348 24.5611 19.5708 24.5216C19.6457 24.4391 19.7205 24.3566 19.7953 24.274C19.8905 24.1689 19.9858 24.064 20.0812 23.9591C20.1553 23.8776 20.2293 23.796 20.3033 23.7143C20.3384 23.6756 20.3736 23.637 20.4087 23.5983C20.5848 23.4047 20.7583 23.2102 20.9193 23.0009C20.9745 22.9313 21.0328 22.8665 21.0927 22.8017C21.2083 22.6767 21.3124 22.5442 21.4163 22.4074C21.3609 22.2591 21.2684 22.1537 21.1699 22.039C21.1355 21.9984 21.1012 21.9577 21.0669 21.9171C21.0502 21.8974 21.0336 21.8778 21.0165 21.8576C20.9391 21.7653 20.8646 21.6704 20.79 21.5754C20.7212 21.4888 20.6508 21.4039 20.5805 21.3188C20.4745 21.1895 20.3731 21.0578 20.274 20.922C20.157 20.7625 20.0347 20.6112 19.9075 20.4616C19.7559 20.2829 19.6124 20.0997 19.4734 19.9087C19.3982 19.8072 19.3209 19.7084 19.2426 19.6099C18.4186 18.5697 18.4186 18.5697 18.4257 17.9729C18.4408 17.7694 18.4963 17.6231 18.6152 17.4673C18.8272 17.2717 19.0205 17.1368 19.3053 17.1627C19.7661 17.2407 20.0253 17.5586 20.3071 17.9508C20.3946 18.072 20.485 18.1901 20.5762 18.3079C20.6913 18.457 20.805 18.607 20.917 18.759C21.0355 18.9194 21.1566 19.0769 21.2792 19.2336C21.4273 19.423 21.5724 19.6147 21.7154 19.8088C21.8188 19.9477 21.9244 20.0846 22.0301 20.2214C22.1597 20.3896 22.2862 20.5602 22.4117 20.7321C22.4765 20.8167 22.5444 20.8946 22.6165 20.9716C22.9077 20.6302 22.9077 20.6302 23.1823 20.2726C23.2969 20.1152 23.4172 19.9664 23.5423 19.8193C23.6959 19.6385 23.8401 19.4525 23.9809 19.2593C24.0605 19.153 24.1435 19.0516 24.2282 18.9502C24.3666 18.7844 24.497 18.6135 24.6254 18.4383C24.737 18.2881 24.852 18.1414 24.9671 17.9946C25.0751 17.8566 25.1796 17.7162 25.2826 17.5735C25.6241 17.1132 26.0228 16.814 26.5475 17.1322Z" fill="#191919"/>
<path d="M106.547 97.1322C106.781 97.3083 106.933 97.5486 106.989 97.8557C107.027 98.1709 106.966 98.4253 106.834 98.7047C106.812 98.7047 106.789 98.7047 106.766 98.7047C106.763 98.7247 106.76 98.7447 106.758 98.7653C106.721 98.891 106.655 98.9887 106.586 99.0943C106.563 99.1289 106.563 99.1289 106.54 99.1642C106.252 99.5959 105.917 99.9882 105.585 100.379C105.531 100.443 105.477 100.508 105.423 100.572C105.038 101.032 104.635 101.471 104.232 101.911C104.207 101.938 104.183 101.965 104.157 101.992C104.111 102.043 104.064 102.094 104.017 102.145C103.996 102.168 103.975 102.191 103.954 102.215C103.936 102.235 103.917 102.255 103.898 102.275C103.843 102.338 103.843 102.338 103.782 102.445C103.791 102.591 103.866 102.666 103.954 102.769C104.064 102.9 104.171 103.033 104.273 103.172C104.393 103.335 104.515 103.495 104.64 103.654C104.787 103.843 104.931 104.034 105.074 104.227C105.167 104.352 105.263 104.476 105.36 104.599C105.507 104.787 105.651 104.978 105.794 105.171C105.888 105.297 105.984 105.42 106.08 105.543C106.23 105.735 106.378 105.929 106.522 106.125C106.571 106.192 106.621 106.258 106.671 106.324C106.87 106.59 106.996 106.793 106.983 107.15C106.949 107.428 106.805 107.606 106.613 107.781C106.431 107.921 106.225 108.026 105.998 107.994C105.448 107.806 104.967 107.104 104.605 106.639C104.589 106.619 104.574 106.599 104.557 106.578C104.365 106.331 104.178 106.081 103.997 105.824C103.878 105.655 103.755 105.489 103.632 105.324C103.458 105.089 103.289 104.85 103.123 104.608C102.945 104.351 102.764 104.097 102.582 103.843C102.481 103.893 102.41 103.948 102.331 104.035C102.31 104.059 102.288 104.083 102.266 104.107C102.242 104.134 102.219 104.16 102.195 104.187C102.17 104.214 102.145 104.242 102.119 104.27C102.036 104.362 101.954 104.453 101.871 104.545C101.814 104.609 101.756 104.672 101.698 104.736C101.547 104.904 101.395 105.072 101.244 105.24C101.002 105.508 100.759 105.776 100.517 106.044C100.432 106.137 100.348 106.231 100.264 106.324C100.212 106.382 100.159 106.44 100.107 106.498C100.084 106.524 100.061 106.549 100.037 106.576C99.9035 106.723 99.7662 106.863 99.6228 106.999C99.5531 107.066 99.4902 107.138 99.4275 107.213C99.2625 107.396 99.1157 107.492 98.8831 107.529C98.6399 107.513 98.4291 107.37 98.2659 107.177C98.0919 106.935 98.0081 106.708 98 106.399C98.0668 106.089 98.2951 105.869 98.4952 105.654C98.5216 105.625 98.5479 105.597 98.5751 105.567C98.6916 105.44 98.8093 105.317 98.9335 105.2C99.1182 105.023 99.2901 104.831 99.463 104.64C99.4989 104.601 99.5348 104.561 99.5708 104.522C99.6457 104.439 99.7205 104.357 99.7953 104.274C99.8905 104.169 99.9858 104.064 100.081 103.959C100.155 103.878 100.229 103.796 100.303 103.714C100.338 103.676 100.374 103.637 100.409 103.598C100.585 103.405 100.758 103.21 100.919 103.001C100.975 102.931 101.033 102.866 101.093 102.802C101.208 102.677 101.312 102.544 101.416 102.407C101.361 102.259 101.268 102.154 101.17 102.039C101.136 101.998 101.101 101.958 101.067 101.917C101.05 101.897 101.034 101.878 101.016 101.858C100.939 101.765 100.865 101.67 100.79 101.575C100.721 101.489 100.651 101.404 100.58 101.319C100.474 101.19 100.373 101.058 100.274 100.922C100.157 100.763 100.035 100.611 99.9075 100.462C99.7559 100.283 99.6124 100.1 99.4734 99.9087C99.3982 99.8072 99.3209 99.7084 99.2426 99.6099C98.4186 98.5697 98.4186 98.5697 98.4257 97.9729C98.4408 97.7694 98.4963 97.6231 98.6152 97.4673C98.8272 97.2717 99.0205 97.1368 99.3053 97.1627C99.7661 97.2407 100.025 97.5586 100.307 97.9508C100.395 98.072 100.485 98.1901 100.576 98.3079C100.691 98.457 100.805 98.607 100.917 98.759C101.035 98.9194 101.157 99.0769 101.279 99.2336C101.427 99.423 101.572 99.6147 101.715 99.8088C101.819 99.9477 101.924 100.085 102.03 100.221C102.16 100.39 102.286 100.56 102.412 100.732C102.476 100.817 102.544 100.895 102.616 100.972C102.908 100.63 102.908 100.63 103.182 100.273C103.297 100.115 103.417 99.9664 103.542 99.8193C103.696 99.6385 103.84 99.4525 103.981 99.2593C104.06 99.153 104.143 99.0516 104.228 98.9502C104.367 98.7844 104.497 98.6135 104.625 98.4383C104.737 98.2881 104.852 98.1414 104.967 97.9946C105.075 97.8566 105.18 97.7162 105.283 97.5735C105.624 97.1132 106.023 96.814 106.547 97.1322Z" fill="#191919"/>
<path d="M66.5475 57.1322C66.7809 57.3083 66.9335 57.5486 66.9885 57.8557C67.0271 58.1709 66.9665 58.4253 66.8342 58.7047C66.8116 58.7047 66.789 58.7047 66.7657 58.7047C66.763 58.7247 66.7603 58.7447 66.7576 58.7653C66.7212 58.891 66.6552 58.9887 66.5856 59.0943C66.563 59.1289 66.563 59.1289 66.5399 59.1642C66.2521 59.5959 65.9174 59.9882 65.5854 60.3787C65.531 60.4429 65.4771 60.5075 65.4232 60.5723C65.0382 61.0317 64.6345 61.4708 64.2315 61.9111C64.207 61.9379 64.1825 61.9648 64.1573 61.9924C64.1107 62.0435 64.064 62.0944 64.0172 62.1453C63.9963 62.1682 63.9754 62.1911 63.9539 62.2147C63.9356 62.2346 63.9173 62.2546 63.8985 62.2752C63.8434 62.3378 63.8434 62.3378 63.7824 62.4452C63.7911 62.5907 63.8655 62.6661 63.9538 62.7687C64.0644 62.9001 64.1709 63.033 64.2732 63.1725C64.3929 63.3355 64.5154 63.4954 64.6396 63.6542C64.7871 63.8427 64.9313 64.0336 65.0736 64.2268C65.1675 64.3523 65.2634 64.4756 65.3597 64.5988C65.5072 64.7873 65.6514 64.9782 65.7937 65.1714C65.8876 65.2969 65.9835 65.4202 66.0798 65.5433C66.2298 65.7352 66.3776 65.9286 66.5221 66.1254C66.5711 66.192 66.6206 66.2581 66.6706 66.3238C66.8704 66.5897 66.9957 66.793 66.9829 67.1498C66.9487 67.4279 66.8049 67.6057 66.6134 67.7811C66.4306 67.9207 66.2252 68.0256 65.9984 67.9945C65.4479 67.8055 64.9672 67.1038 64.6053 66.639C64.5895 66.6188 64.5736 66.5986 64.5573 66.5777C64.3647 66.3315 64.1783 66.0808 63.9971 65.8243C63.8777 65.6554 63.7555 65.4893 63.6324 65.3237C63.4581 65.0888 63.2893 64.8499 63.1227 64.6083C62.9453 64.3509 62.7642 64.0967 62.5822 63.8431C62.4808 63.8934 62.4097 63.9483 62.3315 64.035C62.3097 64.0589 62.288 64.0828 62.2656 64.1074C62.2422 64.1335 62.2188 64.1597 62.1946 64.1867C62.1696 64.2143 62.1446 64.2418 62.1188 64.2703C62.0361 64.3616 61.9537 64.4533 61.8712 64.5449C61.8137 64.6086 61.7561 64.6722 61.6985 64.7358C61.5467 64.9036 61.3951 65.0715 61.2435 65.2396C61.0015 65.5079 60.7592 65.7759 60.5169 66.0439C60.4324 66.1373 60.3481 66.2308 60.2639 66.3243C60.2116 66.3822 60.1594 66.44 60.1072 66.4978C60.084 66.5235 60.0608 66.5493 60.037 66.5759C59.9035 66.7233 59.7662 66.8632 59.6228 66.9986C59.5531 67.0657 59.4902 67.138 59.4275 67.2129C59.2625 67.3957 59.1157 67.4921 58.8831 67.5293C58.6399 67.513 58.4291 67.37 58.2659 67.1774C58.0919 66.9355 58.0081 66.708 58 66.3992C58.0668 66.0888 58.2951 65.8689 58.4952 65.6543C58.5216 65.6255 58.5479 65.5966 58.5751 65.5669C58.6916 65.4402 58.8093 65.3173 58.9335 65.1999C59.1182 65.0226 59.2901 64.8312 59.463 64.6402C59.4989 64.6007 59.5348 64.5611 59.5708 64.5216C59.6457 64.4391 59.7205 64.3566 59.7953 64.274C59.8905 64.1689 59.9858 64.064 60.0812 63.9591C60.1553 63.8776 60.2293 63.796 60.3033 63.7143C60.3384 63.6756 60.3736 63.637 60.4087 63.5983C60.5848 63.4047 60.7583 63.2102 60.9193 63.0009C60.9745 62.9313 61.0328 62.8665 61.0927 62.8017C61.2083 62.6767 61.3124 62.5442 61.4163 62.4074C61.3609 62.2591 61.2684 62.1537 61.1699 62.039C61.1355 61.9984 61.1012 61.9577 61.0669 61.9171C61.0502 61.8974 61.0336 61.8778 61.0165 61.8576C60.9391 61.7653 60.8646 61.6704 60.79 61.5754C60.7212 61.4888 60.6508 61.4039 60.5805 61.3188C60.4745 61.1895 60.3731 61.0578 60.274 60.922C60.157 60.7625 60.0347 60.6112 59.9075 60.4616C59.7559 60.2829 59.6124 60.0997 59.4734 59.9087C59.3982 59.8072 59.3209 59.7084 59.2426 59.6099C58.4186 58.5697 58.4186 58.5697 58.4257 57.9729C58.4408 57.7694 58.4963 57.6231 58.6152 57.4673C58.8272 57.2717 59.0205 57.1368 59.3053 57.1627C59.7661 57.2407 60.0253 57.5586 60.3071 57.9508C60.3946 58.072 60.485 58.1901 60.5762 58.3079C60.6913 58.457 60.805 58.607 60.917 58.759C61.0355 58.9194 61.1566 59.0769 61.2792 59.2336C61.4273 59.423 61.5724 59.6147 61.7154 59.8088C61.8188 59.9477 61.9244 60.0846 62.0301 60.2214C62.1597 60.3896 62.2862 60.5602 62.4117 60.7321C62.4765 60.8167 62.5444 60.8946 62.6165 60.9716C62.9077 60.6302 62.9077 60.6302 63.1823 60.2726C63.2969 60.1152 63.4172 59.9664 63.5423 59.8193C63.6959 59.6385 63.8401 59.4525 63.9809 59.2593C64.0605 59.153 64.1435 59.0516 64.2282 58.9502C64.3666 58.7844 64.497 58.6135 64.6254 58.4383C64.737 58.2881 64.852 58.1414 64.9671 57.9946C65.0751 57.8566 65.1796 57.7162 65.2826 57.5735C65.6241 57.1132 66.0228 56.814 66.5475 57.1322Z" fill="#191919"/>
</svg>
